<svg width="193" height="42" viewBox="0 0 193 42" fill="none" xmlns="http://www.w3.org/2000/svg">
<g clip-path="url(#clip0_2781_482)">
<path d="M193.418 19.3522V15.9151H189.204V10.5719L189.063 10.6162L185.105 11.8426L185.027 11.8667V15.9155H178.779V13.6604C178.779 12.6104 179.012 11.8063 179.468 11.2703C179.922 10.7407 180.571 10.4715 181.398 10.4715C181.994 10.4715 182.61 10.6135 183.23 10.8938L183.385 10.9637V7.34402L183.313 7.31691C182.734 7.10615 181.947 7 180.972 7C179.743 7 178.626 7.27109 177.652 7.80793C176.678 8.34553 175.911 9.11298 175.374 10.0893C174.839 11.0641 174.567 12.1901 174.567 13.4359V15.9155H171.633V19.3526H174.567V33.8323H178.779V19.3522H185.027V28.554C185.027 32.3439 186.792 34.2649 190.272 34.2649C190.844 34.2649 191.446 34.1965 192.061 34.0637C192.686 33.9273 193.112 33.791 193.363 33.6452L193.418 33.6123V30.1431L193.247 30.2577C193.018 30.4127 192.734 30.5383 192.4 30.6319C192.064 30.7273 191.785 30.7754 191.568 30.7754C190.753 30.7754 190.149 30.5528 189.775 30.1137C189.396 29.6708 189.204 28.8957 189.204 27.8114V19.3522H193.418ZM162.226 30.7762C160.697 30.7762 159.492 30.2623 158.643 29.2508C157.788 28.2341 157.355 26.7847 157.355 24.9432C157.355 23.0436 157.788 21.5564 158.643 20.5217C159.493 19.4939 160.687 18.9723 162.192 18.9723C163.653 18.9723 164.816 19.4706 165.648 20.4537C166.485 21.4427 166.91 22.9176 166.91 24.8397C166.91 26.7851 166.51 28.2799 165.722 29.2795C164.94 30.2718 163.764 30.7762 162.226 30.7762ZM162.414 15.4836C159.497 15.4836 157.18 16.3492 155.529 18.0567C153.877 19.7646 153.041 22.1273 153.041 25.081C153.041 27.8862 153.858 30.1428 155.469 31.7865C157.081 33.4314 159.274 34.2645 161.987 34.2645C164.815 34.2645 167.086 33.3863 168.737 31.6555C170.388 29.9259 171.224 27.5853 171.224 24.7007C171.224 21.8516 170.439 19.5782 168.89 17.9452C167.341 16.3118 165.162 15.4836 162.414 15.4836ZM146.249 15.4836C144.265 15.4836 142.624 15.9975 141.37 17.0109C140.109 18.0303 139.469 19.3679 139.469 20.986C139.469 21.8271 139.607 22.5744 139.879 23.2082C140.152 23.8439 140.576 24.4037 141.138 24.8737C141.696 25.3395 142.556 25.8278 143.698 26.3246C144.657 26.7243 145.373 27.0626 145.827 27.3291C146.271 27.5903 146.587 27.853 146.765 28.1088C146.938 28.3589 147.026 28.7014 147.026 29.1245C147.026 30.3283 146.136 30.9137 144.304 30.9137C143.626 30.9137 142.85 30.7705 142.002 30.4872C141.159 30.208 140.364 29.7994 139.644 29.2757L139.469 29.1489V33.2565L139.533 33.287C140.129 33.5658 140.881 33.8002 141.766 33.9854C142.65 34.1706 143.453 34.2649 144.151 34.2649C146.304 34.2649 148.038 33.7483 149.303 32.7284C150.576 31.7021 151.222 30.3333 151.222 28.6586C151.222 27.4509 150.874 26.4155 150.189 25.58C149.509 24.7515 148.329 23.9909 146.683 23.3185C145.372 22.7855 144.531 22.343 144.185 22.0032C143.851 21.6748 143.681 21.2109 143.681 20.6233C143.681 20.1021 143.891 19.6848 144.321 19.3465C144.754 19.0067 145.357 18.8337 146.113 18.8337C146.815 18.8337 147.533 18.9459 148.247 19.1659C148.961 19.3862 149.587 19.6809 150.111 20.0414L150.283 20.1605V16.2641L150.217 16.235C149.734 16.0254 149.097 15.8463 148.324 15.7005C147.554 15.5565 146.856 15.4836 146.249 15.4836ZM128.487 30.7758C126.959 30.7758 125.753 30.2623 124.904 29.2508C124.049 28.2341 123.617 26.7851 123.617 24.9432C123.617 23.0436 124.05 21.5564 124.905 20.5217C125.754 19.4939 126.948 18.9723 128.454 18.9723C129.914 18.9723 131.076 19.4706 131.909 20.4537C132.746 21.4427 133.171 22.9176 133.171 24.8397C133.171 26.7851 132.772 28.2799 131.984 29.2795C131.202 30.2718 130.026 30.7762 128.487 30.7762V30.7758ZM128.676 15.4836C125.758 15.4836 123.441 16.3492 121.79 18.0567C120.139 19.7646 119.302 22.1273 119.302 25.081C119.302 27.8874 120.119 30.1428 121.731 31.7865C123.342 33.4314 125.536 34.2645 128.249 34.2645C131.076 34.2645 133.347 33.3863 134.998 31.6555C136.649 29.9259 137.486 27.5853 137.486 24.7007C137.486 21.8516 136.7 19.5782 135.152 17.9452C133.602 16.3118 131.423 15.4836 128.676 15.4836H128.676ZM112.908 19.0181V15.9151H108.747V33.8323H112.908V24.6671C112.908 23.1085 113.257 21.8283 113.945 20.8611C114.625 19.9055 115.53 19.4217 116.636 19.4217C117.011 19.4217 117.431 19.4839 117.887 19.608C118.338 19.731 118.665 19.8646 118.857 20.0051L119.032 20.1334V15.8845L118.965 15.8551C118.577 15.6883 118.029 15.6043 117.335 15.6043C116.29 15.6043 115.354 15.9445 114.553 16.6146C113.849 17.2033 113.341 18.0109 112.952 19.0181H112.908H112.908ZM101.296 15.4836C99.3867 15.4836 97.684 15.8983 96.2353 16.7154C94.7841 17.5344 93.6619 18.7043 92.8985 20.1914C92.1382 21.6752 91.7526 23.4079 91.7526 25.3406C91.7526 27.0332 92.1265 28.5869 92.8661 29.9561C93.6061 31.3275 94.654 32.4005 95.9798 33.1442C97.304 33.8876 98.834 34.2649 100.528 34.2649C102.506 34.2649 104.194 33.864 105.548 33.0747L105.603 33.0427V29.1813L105.428 29.3108C104.805 29.768 104.119 30.1298 103.392 30.3845C102.657 30.6441 101.986 30.7758 101.398 30.7758C99.7659 30.7758 98.4552 30.2581 97.5034 29.2382C96.5497 28.2165 96.0665 26.7824 96.0665 24.9771C96.0665 23.1608 96.5708 21.6897 97.5645 20.6038C98.5547 19.5217 99.8677 18.9727 101.467 18.9727C102.835 18.9727 104.167 19.4415 105.428 20.3682L105.603 20.4965V16.4282L105.546 16.3958C105.072 16.127 104.425 15.9048 103.621 15.7364C102.821 15.5684 102.039 15.4836 101.295 15.4836H101.296ZM88.8863 15.9151H84.7254V33.8323H88.8866V15.9155L88.8863 15.9151ZM86.8484 8.28253C86.1639 8.28253 85.5668 8.51849 85.0756 8.9866C84.583 9.45624 84.333 10.0469 84.333 10.7441C84.333 11.4302 84.5799 12.0102 85.0681 12.4669C85.5529 12.9224 86.1518 13.1534 86.8484 13.1534C87.5451 13.1534 88.1463 12.9224 88.6371 12.4676C89.1309 12.0102 89.3816 11.4302 89.3816 10.7441C89.3816 10.071 89.1377 9.48602 88.6574 9.00531C88.1776 8.52575 87.5692 8.28253 86.8484 8.28253ZM76.4672 14.5932V33.8323H80.7132V8.8312H74.8365L67.366 27.4009L60.1164 8.8312H54V33.8323H57.9904V14.5913H58.1276L65.7828 33.8319H68.7943L76.3296 14.5932H76.4668H76.4672Z" fill="white" fill-opacity="0.2"/>
<path d="M19.574 19.8267H0V0H19.574V19.8267Z" fill="white" fill-opacity="0.2"/>
<path d="M41.1859 19.8267H21.6122V0H41.1859V19.8267Z" fill="white" fill-opacity="0.2"/>
<path d="M19.5733 41.7247H0V21.8984H19.5733V41.7247Z" fill="white" fill-opacity="0.2"/>
<path d="M41.1859 41.7247H21.6122V21.8984H41.1859V41.7247Z" fill="white" fill-opacity="0.2"/>
</g>
<defs>
<clipPath id="clip0_2781_482">
<rect width="193" height="42" fill="white"/>
</clipPath>
</defs>
</svg>
