<svg width="194" height="49" viewBox="0 0 194 49" fill="none" xmlns="http://www.w3.org/2000/svg">
<g clip-path="url(#clip0_2781_488)">
<path d="M61.9865 38.4035L64.4065 32.8118C67.0217 34.7533 70.4955 35.7631 73.9307 35.7631C76.4679 35.7631 78.0684 34.7922 78.0684 33.3169C78.0293 29.2009 62.8841 32.4236 62.767 22.0947C62.728 16.8529 67.4124 12.8145 74.0478 12.8145C77.9903 12.8145 81.9328 13.7851 84.7432 15.9984L82.4792 21.7065C79.903 20.0756 76.7024 18.9109 73.6575 18.9109C71.5887 18.9109 70.2227 19.8815 70.2227 21.1242C70.2618 25.1625 85.5241 22.9492 85.6802 32.8118C85.6802 38.1705 81.1133 41.9371 74.5555 41.9371C69.754 41.9371 65.3432 40.8109 61.9865 38.4035ZM154.849 30.7926L161.524 34.4816C159.025 38.947 154.263 41.9371 148.759 41.9371C140.679 41.9371 134.121 35.4137 134.121 27.3758C134.121 19.3379 140.679 12.8145 148.759 12.8145C154.224 12.8145 159.025 15.8431 161.524 20.2701L154.849 23.9586C153.639 21.8618 151.375 20.4254 148.759 20.4254C144.895 20.4254 141.772 23.5316 141.772 27.3758C141.772 31.2201 144.895 34.3263 148.759 34.3263C151.375 34.3263 153.639 32.8894 154.848 30.7926H154.849ZM89.0369 0.738281H97.3903V41.3932H89.0369V0.738281ZM164.802 0.738281H173.156V24.6186L182.602 13.3969H192.829L181.158 26.9096L193.766 41.3932H183.071L173.156 29.2009V41.3932H164.802V0.738281ZM122.216 30.8706V23.9975C121.006 21.9783 118.508 20.4254 115.698 20.4254C111.833 20.4254 108.711 23.5316 108.711 27.3758C108.711 31.2201 111.833 34.3263 115.698 34.3263C118.508 34.3263 121.006 32.8506 122.216 30.8703V30.8706ZM122.216 13.3972H130.57V41.3548H122.216V38.0544C120.85 40.3454 117.454 41.9375 113.902 41.9375C106.563 41.9375 100.786 35.4141 100.786 27.3374C100.786 19.2607 106.563 12.8149 113.902 12.8149C117.454 12.8149 120.85 14.407 122.216 16.698V13.3965V13.3972Z" fill="white" fill-opacity="0.2"/>
<path d="M10.3442 30.8305C10.3442 33.6649 8.04119 35.9563 5.19143 35.9563C4.5146 35.9569 3.84428 35.8248 3.21885 35.5674C2.59342 35.31 2.02515 34.9325 1.54658 34.4564C1.068 33.9803 0.688516 33.4149 0.429837 32.7928C0.171158 32.1706 0.0383674 31.5038 0.0390652 30.8305C0.0390652 27.996 2.34206 25.7051 5.19143 25.7051H10.3442V30.8305ZM12.9204 30.8305C12.9204 27.996 15.2234 25.7051 18.0727 25.7051C20.9221 25.7051 23.2255 27.996 23.2255 30.8305V43.6444C23.2255 46.4788 20.9225 48.7701 18.0727 48.7701C17.3959 48.7707 16.7257 48.6385 16.1003 48.3812C15.4749 48.1238 14.9067 47.7462 14.4281 47.2701C13.9496 46.794 13.5701 46.2287 13.3115 45.6066C13.0528 44.9844 12.92 44.3176 12.9207 43.6444V30.8305H12.9204Z" fill="white" fill-opacity="0.2"/>
<path d="M18.0727 10.2512C17.3959 10.2518 16.7256 10.1196 16.1002 9.8622C15.4748 9.6048 14.9066 9.22725 14.4281 8.75115C13.9496 8.27505 13.5701 7.70975 13.3114 7.0876C13.0528 6.46544 12.92 5.79866 12.9207 5.1254C12.9203 2.29094 15.2233 0 18.0727 0C20.9221 0 23.2254 2.29094 23.2254 5.1254V10.2512H18.0727ZM18.0727 12.8527C20.9221 12.8527 23.2254 15.1436 23.2254 17.9781C23.2254 20.8126 20.9224 23.1039 18.0727 23.1039H5.15237C4.47554 23.1045 3.80522 22.9724 3.17979 22.715C2.55436 22.4576 1.98609 22.0801 1.50752 21.604C1.02894 21.1279 0.649454 20.5626 0.390775 19.9404C0.132096 19.3182 -0.000695083 18.6514 2.73605e-06 17.9781C2.73605e-06 15.1436 2.30299 12.8531 5.15237 12.8531H18.0731L18.0727 12.8527Z" fill="white" fill-opacity="0.2"/>
<path d="M38.7219 17.9781C38.7219 15.1436 41.0249 12.8527 43.8742 12.8527C46.7236 12.8527 49.027 15.1436 49.027 17.9781C49.027 20.8126 46.724 23.1039 43.8742 23.1039H38.7219V17.9781ZM36.1453 17.9781C36.1453 20.8126 33.8427 23.1039 30.9929 23.1039C30.3161 23.1045 29.6458 22.9724 29.0204 22.715C28.3949 22.4576 27.8267 22.0801 27.3481 21.604C26.8695 21.1279 26.49 20.5626 26.2314 19.9404C25.9727 19.3182 25.8399 18.6514 25.8406 17.9781V5.1254C25.8406 2.29094 28.1436 0 30.9929 0C33.8423 0 36.1457 2.29094 36.1457 5.1254V17.9785L36.1453 17.9781Z" fill="white" fill-opacity="0.2"/>
<path d="M30.9929 38.519C33.8423 38.519 36.1457 40.8099 36.1457 43.6444C36.1457 46.4788 33.8427 48.7701 30.9929 48.7701C30.3161 48.7708 29.6458 48.6386 29.0204 48.3813C28.3949 48.1239 27.8267 47.7464 27.3481 47.2702C26.8695 46.7941 26.49 46.2288 26.2314 45.6066C25.9727 44.9845 25.8399 44.3176 25.8406 43.6444V38.519H30.9929ZM30.9929 35.9559C30.3161 35.9565 29.6459 35.8244 29.0205 35.567C28.395 35.3097 27.8268 34.9322 27.3482 34.4561C26.8697 33.9801 26.4902 33.4148 26.2315 32.7926C25.9728 32.1705 25.8399 31.5037 25.8406 30.8305C25.8406 27.996 28.1436 25.7051 30.9929 25.7051H43.9137C46.763 25.7051 49.066 27.996 49.066 30.8305C49.066 33.6649 46.763 35.9563 43.9133 35.9563H30.9929V35.9559Z" fill="white" fill-opacity="0.2"/>
</g>
<defs>
<clipPath id="clip0_2781_488">
<rect width="194" height="49" fill="white"/>
</clipPath>
</defs>
</svg>
