<svg width="194" height="44" viewBox="0 0 194 44" fill="none" xmlns="http://www.w3.org/2000/svg">
<g clip-path="url(#clip0_2781_501)">
<path d="M112.516 17.1955H104.879V17.9995C107.268 17.9995 107.652 18.5076 107.652 21.5142V26.9345C107.652 29.9408 107.268 30.4914 104.879 30.4914C103.045 30.2375 101.808 29.2631 100.101 27.4001L98.1386 25.2832C100.783 24.8169 102.191 23.1659 102.191 21.3025C102.191 18.9743 100.187 17.1958 96.432 17.1958H88.9236V17.9995C91.3123 17.9995 91.6965 18.5076 91.6965 21.5142V26.9345C91.6965 29.9408 91.3123 30.4914 88.9236 30.4914V31.2958H97.413V30.491C95.0244 30.491 94.6406 29.9408 94.6406 26.9345V25.4103H95.3654L100.101 31.2958H112.516C118.617 31.2958 121.262 28.0781 121.262 24.2242C121.262 20.371 118.617 17.1955 112.516 17.1955ZM94.6409 24.0971V18.4658H96.3896C98.3091 18.4658 99.1628 19.7783 99.1628 21.3029C99.1628 22.785 98.3091 24.0971 96.3896 24.0971H94.6409ZM112.644 29.9833H112.345C110.81 29.9833 110.597 29.6023 110.597 27.6543V18.4658H112.644C117.081 18.4658 117.891 21.6835 117.891 24.1821C117.891 26.7649 117.081 29.9833 112.644 29.9833ZM65.1617 25.6645L68.1054 17.0259C68.9591 14.5276 68.5748 13.8082 65.8444 13.8082V12.9609H73.8648V13.8082C71.1772 13.8082 70.5376 14.443 69.471 17.5343L64.6069 32.0156H64.0526L59.7005 18.7614L55.2635 32.0156H54.7088L49.974 17.5343C48.9501 14.443 48.2674 13.8082 45.7927 13.8082V12.9609H55.2639V13.8082C52.7468 13.8082 52.0636 14.4009 52.9601 17.0259L55.8182 25.6642L60.1271 12.9609H60.938L65.1617 25.6645ZM79.6662 31.846C74.9734 31.846 71.134 28.4162 71.134 24.2238C71.134 20.0746 74.9738 16.6442 79.6662 16.6442C84.3593 16.6442 88.1984 20.0746 88.1984 24.2238C88.1984 28.4162 84.3593 31.846 79.6662 31.846ZM79.6662 17.9578C75.7415 17.9578 74.3763 21.4717 74.3763 24.2242C74.3763 27.0195 75.7415 30.4914 79.6662 30.4914C83.6341 30.4914 84.9993 27.0195 84.9993 24.2242C84.9993 21.4717 83.6341 17.9578 79.6662 17.9578Z" fill="white" fill-opacity="0.2"/>
<path d="M131.799 30.4492V31.2962H122.029V30.4492C124.888 30.4492 125.4 29.7294 125.4 25.4945V18.7204C125.4 14.4851 124.888 13.8082 122.029 13.8082V12.9609H130.86C135.254 12.9609 137.686 15.2053 137.686 18.212C137.686 21.134 135.254 23.4202 130.86 23.4202H128.428V25.4942C128.428 29.7294 128.94 30.4492 131.799 30.4492ZM130.86 14.4851H128.428V21.8534H130.86C133.249 21.8534 134.359 20.2021 134.359 18.212C134.359 16.1797 133.249 14.4851 130.86 14.4851ZM166.995 27.3158L166.782 28.0781C166.398 29.4752 165.928 29.9837 162.899 29.9837H162.301C160.084 29.9837 159.699 29.4752 159.699 26.4693V24.5213C163.027 24.5213 163.283 24.8176 163.283 27.0199H164.094V20.7098H163.283C163.283 22.9117 163.027 23.208 159.699 23.208V18.4658H162.045C165.075 18.4658 165.544 18.9743 165.928 20.3714L166.142 21.1754H166.824L166.526 17.1955H153.982V17.9995C156.371 17.9995 156.756 18.5076 156.756 21.5142V26.9345C156.756 29.6847 156.429 30.3774 154.546 30.4763C152.756 30.2048 151.527 29.2357 149.845 27.4001L147.882 25.2832C150.528 24.8169 151.936 23.1659 151.936 21.3025C151.936 18.9743 149.93 17.1958 146.176 17.1958H138.668V17.9995C141.056 17.9995 141.441 18.5076 141.441 21.5142V26.9345C141.441 29.9408 141.057 30.4914 138.668 30.4914V31.2958H147.158V30.491C144.769 30.491 144.385 29.9408 144.385 26.9345V25.4107H145.11L149.845 31.2962H167.379L167.636 27.3162H166.995V27.3158ZM144.384 24.0975V18.4662H146.133C148.053 18.4662 148.907 19.7787 148.907 21.3033C148.907 22.7853 148.053 24.0975 146.133 24.0975H144.384ZM175.655 31.8463C173.949 31.8463 172.455 30.9573 171.815 30.4064C171.602 30.6185 171.218 31.2537 171.133 31.8463H170.322V26.0034H171.176C171.517 28.7976 173.479 30.4492 175.997 30.4492C177.362 30.4492 178.471 29.6873 178.471 28.417C178.471 27.3162 177.49 26.4689 175.741 25.6649L173.309 24.5217C171.602 23.7165 170.322 22.319 170.322 20.4564C170.322 18.4241 172.242 16.6882 174.887 16.6882C176.296 16.6882 177.489 17.1962 178.215 17.7889C178.428 17.6197 178.642 17.1533 178.77 16.6449H179.581V21.6425H178.685C178.385 19.6519 177.277 18.0006 175.016 18.0006C173.821 18.0006 172.711 18.6783 172.711 19.7373C172.711 20.8381 173.608 21.4304 175.656 22.3623L178.001 23.5055C180.05 24.4792 180.86 26.0466 180.86 27.3166C180.86 29.984 178.513 31.8467 175.655 31.8467V31.8463ZM188.795 31.8463C187.088 31.8463 185.595 30.9573 184.955 30.4064C184.742 30.6185 184.358 31.2537 184.273 31.8463H183.463V26.0034H184.315C184.656 28.7976 186.619 30.4492 189.136 30.4492C190.501 30.4492 191.611 29.6873 191.611 28.417C191.611 27.3162 190.63 26.4689 188.88 25.6649L186.448 24.5217C184.742 23.7165 183.462 22.319 183.462 20.4564C183.462 18.4241 185.382 16.6882 188.027 16.6882C189.435 16.6882 190.629 17.1962 191.355 17.7889C191.568 17.6197 191.781 17.1533 191.909 16.6449H192.72V21.6425H191.824C191.525 19.6519 190.416 18.0006 188.155 18.0006C186.961 18.0006 185.851 18.6783 185.851 19.7373C185.851 20.8381 186.747 21.4304 188.795 22.3623L191.141 23.5055C193.189 24.4792 193.999 26.0466 193.999 27.3166C193.999 29.984 191.653 31.8467 188.795 31.8467V31.8463Z" fill="white" fill-opacity="0.2"/>
<path d="M3.12825 21.8432C3.12825 29.2608 7.47165 35.6705 13.7695 38.7083L4.76285 14.2169C3.68317 16.6166 3.12615 19.2155 3.12825 21.8436V21.8432ZM34.7548 20.8977C34.7548 18.5819 33.9167 16.978 33.1975 15.7294C32.2404 14.1861 31.3435 12.8788 31.3435 11.3355C31.3435 9.61269 32.6598 8.00913 34.5138 8.00913C34.5975 8.00913 34.6767 8.01966 34.7586 8.02417C31.3996 4.96974 26.9243 3.1052 22.0088 3.1052C15.4128 3.1052 9.60982 6.46386 6.23377 11.5517C6.67709 11.5645 7.09426 11.5739 7.44892 11.5739C9.42378 11.5739 12.4808 11.3358 12.4808 11.3358C13.4985 11.2764 13.6183 12.76 12.602 12.8796C12.602 12.8796 11.579 12.9992 10.4408 13.0582L17.3164 33.3558L21.448 21.0568L18.5065 13.0578C17.4899 12.9984 16.5268 12.8788 16.5268 12.8788C15.509 12.8198 15.6287 11.2757 16.6457 11.3355C16.6457 11.3355 19.7641 11.5731 21.6193 11.5731C23.5934 11.5731 26.6511 11.3355 26.6511 11.3355C27.6692 11.2757 27.789 12.7592 26.772 12.8788C26.772 12.8788 25.7471 12.9984 24.6111 13.0575L31.4341 33.2016L33.3172 26.9551C34.1334 24.3636 34.7548 22.5021 34.7548 20.8977ZM22.3399 23.4825L16.6753 39.82C18.4072 40.3263 20.2033 40.5834 22.0088 40.5834C24.1442 40.5841 26.2643 40.2249 28.2785 39.521C28.2263 39.4391 28.1814 39.3528 28.1444 39.263L22.3399 23.4825ZM38.5757 12.8529C38.6568 13.4497 38.703 14.0902 38.703 14.7799C38.703 16.6813 38.3449 18.8188 37.2669 21.4916L31.5 38.0412C37.1131 34.7923 40.8885 28.7568 40.8885 21.8439C40.8889 18.5857 40.0504 15.5222 38.5757 12.8529ZM22.0088 0C9.87354 0 0 9.79884 0 21.8432C0 33.8894 9.87354 43.6879 22.0088 43.6879C34.144 43.6879 44.0187 33.8894 44.0187 21.8432C44.0187 9.79884 34.144 0 22.0088 0ZM22.0088 42.6864C10.4302 42.6864 1.00903 33.3362 1.00903 21.8432C1.00903 10.3513 10.4298 1.00147 22.0088 1.00147C33.5874 1.00147 43.0078 10.3513 43.0078 21.8432C43.0078 33.3362 33.5874 42.6864 22.0088 42.6864Z" fill="white" fill-opacity="0.2"/>
</g>
<defs>
<clipPath id="clip0_2781_501">
<rect width="194" height="44" fill="white"/>
</clipPath>
</defs>
</svg>
